<?xml version="1.0" encoding="UTF-8" standalone="no"?>
<svg
   xmlns:dc="http://purl.org/dc/elements/1.1/"
   xmlns:cc="http://creativecommons.org/ns#"
   xmlns:rdf="http://www.w3.org/1999/02/22-rdf-syntax-ns#"
   xmlns:svg="http://www.w3.org/2000/svg"
   xmlns="http://www.w3.org/2000/svg"
   xmlns:sodipodi="http://sodipodi.sourceforge.net/DTD/sodipodi-0.dtd"
   xmlns:inkscape="http://www.inkscape.org/namespaces/inkscape"
   viewBox="0 0 16 16"
   version="1.1"
   id="svg8"
   sodipodi:docname="ext_icon.svg"
   inkscape:version="0.92.4 (5da689c313, 2019-01-14)">
  <metadata
     id="metadata14">
    <rdf:RDF>
      <cc:Work
         rdf:about="">
        <dc:format>image/svg+xml</dc:format>
        <dc:type
           rdf:resource="http://purl.org/dc/dcmitype/StillImage" />
      </cc:Work>
    </rdf:RDF>
  </metadata>
  <defs
     id="defs12" />
  <sodipodi:namedview
     pagecolor="#ffffff"
     bordercolor="#666666"
     borderopacity="1"
     objecttolerance="10"
     gridtolerance="10"
     guidetolerance="10"
     inkscape:pageopacity="0"
     inkscape:pageshadow="2"
     inkscape:window-width="1920"
     inkscape:window-height="1016"
     id="namedview10"
     showgrid="false"
     inkscape:zoom="14.75"
     inkscape:cx="8"
     inkscape:cy="8"
     inkscape:window-x="0"
     inkscape:window-y="27"
     inkscape:window-maximized="1"
     inkscape:current-layer="layer1" />
  <g
     inkscape:groupmode="layer"
     id="layer1"
     inkscape:label="Background">
    <ellipse
       style="fill:none;fill-opacity:0.61194033;stroke:#bddcff;stroke-width:0.94217122;stroke-opacity:0.61176471"
       id="path4547"
       cx="7.9661021"
       cy="8"
       rx="7.5204396"
       ry="7.554338" />
  </g>
  <g
     inkscape:groupmode="layer"
     id="layer2"
     inkscape:label="Clock">
    <g
       class="icon-color"
       id="g6">
      <path
         inkscape:connector-curvature="0"
         d="M 8,2.6 C 11.1,2.6 13.4,5 13.4,8 13.4,11 11,13.4 8,13.4 5,13.4 2.5,11.1 2.5,8 2.5,4.9 4.9,2.6 8,2.6 M 8,1 C 4.1,1 1,4.1 1,8 c 0,3.9 3.1,7 7,7 3.9,0 7,-3.1 7,-7 C 15,4.1 11.9,1 8,1 Z"
         id="path2" />
      <path
         inkscape:connector-curvature="0"
         d="M 7,4.1 V 8 l 4.1,2.5 C 11.3,10.2 11.5,10 11.6,9.6 L 8,7.4 V 4 C 7.7,4 7.3,4.1 7,4.1 Z"
         id="path4" />
    </g>
  </g>
</svg>
